<?xml version="1.0" standalone="no"?>
<!DOCTYPE svg PUBLIC "-//W3C//DTD SVG 20010904//EN"
 "http://www.w3.org/TR/2001/REC-SVG-20010904/DTD/svg10.dtd">
<svg version="1.0" xmlns="http://www.w3.org/2000/svg"
 width="992.000000pt" height="992.000000pt" viewBox="0 0 992.000000 992.000000"
 preserveAspectRatio="xMidYMid meet">
<metadata>
Created by potrace 1.11, written by Peter Selinger 2001-2013
</metadata>
<g transform="translate(0.000000,992.000000) scale(0.100000,-0.100000)"
fill="#000000" stroke="none">
<path d="M4158 8483 l-3 -878 -53 100 c-342 639 -988 1092 -1827 1280 -311 70
-552 95 -894 96 -360 0 -698 -34 -764 -77 -96 -63 -190 -194 -230 -319 -17
-56 -22 -95 -22 -190 0 -141 22 -238 90 -400 87 -209 187 -356 438 -650 l29
-33 -414 -826 -413 -826 -47 0 -48 0 0 -800 0 -800 50 0 50 0 0 -1660 0 -1660
38 0 c20 0 120 4 222 10 935 50 1452 211 1950 608 211 169 459 437 674 731
185 251 277 500 316 846 28 255 -4 666 -80 1005 -11 49 -20 97 -20 105 0 13
56 15 478 13 l477 -3 3 -1797 2 -1798 800 0 800 0 0 390 0 390 36 32 c82 74
230 261 385 484 90 130 190 267 222 306 105 124 234 215 350 246 l39 11 19
-43 c25 -58 53 -178 84 -366 44 -268 71 -366 141 -504 130 -257 391 -483 825
-714 64 -34 122 -62 128 -62 20 0 179 112 311 218 451 362 958 940 1403 1599
l117 173 0 720 0 720 50 0 50 0 0 800 0 800 -50 0 -50 0 -2 818 -3 817 -62
-190 c-79 -241 -176 -588 -297 -1063 -53 -205 -96 -375 -96 -378 0 -2 -146 -4
-325 -4 -179 0 -325 3 -325 6 0 4 66 160 146 348 81 187 175 409 210 493 l63
152 -49 211 c-27 116 -62 249 -78 295 -98 284 -307 473 -643 581 l-87 27 -40
-31 c-64 -51 -188 -187 -252 -278 -221 -310 -384 -674 -690 -1541 l-93 -263
-389 0 c-247 0 -388 4 -388 10 0 5 7 27 14 47 8 21 60 160 115 308 55 149 135
362 179 475 353 906 508 1323 618 1663 l29 88 -42 35 c-23 19 -100 99 -170
177 -204 226 -284 296 -480 418 -89 56 -372 209 -386 209 -19 0 -281 -400
-423 -646 -53 -93 -100 -173 -105 -178 -5 -6 -9 203 -9 492 l0 502 -800 0
-800 0 -2 -877z m-2188 -775 c153 -28 338 -134 457 -262 49 -53 84 -103 125
-182 94 -183 128 -310 128 -478 0 -310 -185 -587 -497 -745 -84 -42 -213 -78
-311 -86 -71 -7 -82 -5 -82 8 0 9 9 76 19 149 40 272 54 455 48 628 -12 328
-85 510 -304 757 l-72 81 41 37 c106 96 260 128 448 93z m2190 -1843 l0 -105
-86 0 -87 0 26 33 c14 17 50 64 79 104 29 39 56 72 61 72 4 1 7 -46 7 -104z
m-2485 -1786 c114 -381 67 -812 -114 -1065 -22 -31 -38 -61 -35 -66 8 -12
-140 -207 -250 -329 -170 -190 -359 -322 -546 -381 -65 -20 -96 -23 -225 -23
-147 0 -296 22 -310 45 -6 10 40 200 95 391 40 137 147 452 213 624 92 240
352 838 380 873 7 9 93 12 390 10 l380 -3 22 -76z m4805 73 c0 -16 -136 -179
-209 -252 -85 -85 -188 -166 -198 -157 -17 18 -43 366 -30 401 6 14 33 16 222
16 118 0 215 -3 215 -8z m2386 -15 c-9 -36 -93 -185 -138 -245 -42 -56 -110
-112 -137 -112 -10 0 -25 21 -40 58 -35 85 -101 283 -101 304 0 17 15 18 211
18 l211 0 -6 -23z"/>
</g>
</svg>
